<?xml version="1.0" standalone="no"?>
<!DOCTYPE svg PUBLIC "-//W3C//DTD SVG 20010904//EN"
 "http://www.w3.org/TR/2001/REC-SVG-20010904/DTD/svg10.dtd">
<svg version="1.0" xmlns="http://www.w3.org/2000/svg"
 width="254.000000pt" height="254.000000pt" viewBox="0 0 254.000000 254.000000"
 preserveAspectRatio="xMidYMid meet">
<metadata>
Created by potrace 1.14, written by Peter Selinger 2001-2017
</metadata>
<g transform="translate(0.000000,254.000000) scale(0.100000,-0.100000)"
fill="#000000" stroke="none">
<path d="M319 2174 c-8 -10 -9 -18 -3 -22 6 -4 64 -108 129 -232 65 -124 127
-240 138 -259 l20 -33 -44 28 c-24 15 -56 36 -71 47 -24 18 -48 17 -48 -2 0
-5 79 -107 175 -226 96 -120 172 -223 168 -229 -3 -6 -34 -51 -67 -99 -69
-101 -66 -112 22 -91 75 18 73 18 56 -14 -16 -30 -19 -62 -5 -62 5 0 27 25 50
55 23 30 45 55 49 56 4 0 17 2 29 5 29 5 41 -34 23 -77 -7 -17 -13 -59 -12
-94 1 -57 -2 -65 -30 -94 l-32 -32 -15 25 c-9 14 -19 26 -24 26 -4 0 -29 9
-54 21 -53 24 -78 20 -138 -21 -45 -31 -65 -68 -58 -110 6 -39 18 -43 51 -16
37 32 76 36 67 6 -9 -29 20 -37 56 -16 33 20 48 14 94 -33 24 -26 29 -39 28
-73 -1 -22 -7 -46 -13 -52 -17 -17 -12 -46 9 -46 58 0 105 52 103 114 -1 22 2
26 8 16 7 -12 12 -12 22 -2 20 20 23 14 20 -33 -3 -38 -1 -45 14 -45 17 0 19
-7 16 -69 -3 -54 0 -69 12 -74 12 -5 20 6 33 43 17 49 33 65 33 35 0 -9 7 -30
16 -46 12 -25 18 -28 30 -18 8 6 14 20 14 30 0 40 19 25 50 -42 26 -56 35 -67
46 -58 8 6 14 20 14 30 0 12 7 19 19 19 11 0 23 9 26 21 5 16 10 18 20 9 24
-20 35 -2 28 48 l-6 47 39 -29 c21 -16 54 -42 71 -58 19 -15 40 -25 48 -22 16
7 9 30 -34 109 -11 22 -21 43 -21 47 0 4 20 -1 44 -12 66 -28 76 -9 30 58 -38
57 -35 59 41 39 104 -27 120 -8 40 49 -56 40 -66 54 -40 54 32 0 14 36 -30 59
-44 23 -51 41 -16 41 20 0 48 27 38 37 -4 3 -21 7 -39 10 -67 7 -73 10 -73 29
0 16 -7 19 -38 17 -29 -1 -35 2 -28 11 18 22 -8 35 -60 29 -54 -6 -55 -5 -62
66 l-5 43 37 -5 c20 -4 85 -18 146 -32 60 -14 119 -27 130 -29 11 -3 63 -14
115 -26 233 -54 251 -47 133 51 -43 35 -89 74 -103 86 -14 12 -36 30 -49 40
l-24 20 134 81 c74 44 139 85 144 90 6 5 15 11 20 13 6 2 54 30 108 63 117 71
126 92 35 82 -104 -10 -152 -16 -165 -21 -7 -2 -13 -2 -13 1 0 3 63 89 141
191 99 131 137 189 130 196 -7 7 -35 0 -92 -26 -74 -33 -80 -34 -66 -14 136
208 175 276 163 286 -12 10 -37 -7 -151 -108 -107 -93 -310 -268 -326 -280
-16 -11 -14 -2 11 54 29 64 33 101 10 93 -5 -2 -55 -48 -111 -103 -57 -55
-100 -93 -97 -85 29 81 31 91 22 100 -12 12 -19 7 -89 -75 -108 -126 -128
-146 -136 -134 -5 9 -27 8 -85 -3 -44 -9 -88 -19 -98 -23 -16 -7 -18 -5 -12
11 4 10 26 72 48 137 52 150 43 165 -38 70 -60 -70 -119 -142 -140 -172 -7 -9
-15 -13 -19 -10 -3 4 -31 58 -61 120 -65 136 -89 153 -79 57 7 -76 11 -106 20
-158 l7 -39 -39 16 c-41 18 -29 -3 -189 341 -44 94 -66 120 -76 90 -3 -7 0
-30 4 -52 17 -78 44 -226 42 -226 -1 0 -65 90 -143 200 -78 110 -146 202 -150
205 -5 2 -15 -2 -22 -11z m1008 -602 c-15 -16 -35 -29 -44 -29 -10 0 -4 10 18
28 44 37 60 37 26 1z m-304 -816 c-26 -53 -50 -96 -53 -96 -3 0 -13 13 -23 28
-16 28 -16 30 8 63 26 35 107 111 113 105 1 -2 -18 -47 -45 -100z"/>
</g>
</svg>
